<svg xmlns="http://www.w3.org/2000/svg" width="79.144" height="39.137" viewBox="0 0 79.144 39.137">
  <g id="Group_714" data-name="Group 714" transform="translate(-288.394 -682.111)">
    <g id="Group_713" data-name="Group 713">
      <rect id="Rectangle_47" data-name="Rectangle 47" width="79.144" height="39.137" rx="6" transform="translate(288.394 682.111)" fill="#f3fcff"/>
    </g>
    <g id="Group_594" data-name="Group 594">
      <g id="Group_592" data-name="Group 592">
        <path id="Path_471" data-name="Path 471" d="M298.222,699.7a4.157,4.157,0,0,0-.107-.969,1.2,1.2,0,0,0-.438-.7l1.766-.267v5.213a.074.074,0,0,0,.084.083c.033,0,.111-.069.232-.209a4.2,4.2,0,0,1,.473-.453,3.735,3.735,0,0,1,.7-.454,1.983,1.983,0,0,1,.921-.211,2.147,2.147,0,0,1,1.262.36,2.676,2.676,0,0,1,.822.92,4.436,4.436,0,0,1,.448,1.238,6.505,6.505,0,0,1,.141,1.328,5.955,5.955,0,0,1-.207,1.589,3.929,3.929,0,0,1-.629,1.322,3.019,3.019,0,0,1-1.085.9,3.431,3.431,0,0,1-1.571.335,6.013,6.013,0,0,1-.729-.041q-.332-.042-.654-.092t-.678-.092a6.913,6.913,0,0,0-.8-.042q.027-1.053.041-2.1t.014-2.1Zm4.861,5.091a3.977,3.977,0,0,0-.331-1.013,2.065,2.065,0,0,0-.6-.735,1.425,1.425,0,0,0-.887-.285,1.538,1.538,0,0,0-1.351.694,3.337,3.337,0,0,0-.473,1.9v1.288a8.768,8.768,0,0,0,.05.954,2.206,2.206,0,0,0,.224.786,1.336,1.336,0,0,0,.5.534,1.751,1.751,0,0,0,.913.2,1.663,1.663,0,0,0,1.036-.309,2.1,2.1,0,0,0,.63-.787,3.689,3.689,0,0,0,.307-1.045,7.584,7.584,0,0,0,.082-1.088A5.776,5.776,0,0,0,303.083,704.794Z" fill="#e3106e"/>
        <path id="Path_472" data-name="Path 472" d="M306.557,701q0-.567-.042-1.158a2.122,2.122,0,0,0-.322-1.025h2.227a2.122,2.122,0,0,0-.323,1.023q-.04.591-.041,1.156v2.595a1.489,1.489,0,0,0,.62-.283,5.839,5.839,0,0,0,.662-.565q.339-.333.67-.724t.646-.757q.678-.8,1.074-1.314a1.538,1.538,0,0,0,.4-.815v-.183a.43.43,0,0,0-.017-.133h2.051q-.578.516-1.084.948a11.96,11.96,0,0,0-1.049,1.031l-2.565,2.795,2.746,3.955q.33.483.728.975t.778.927h-1.738a.508.508,0,0,1-.363-.125,1.9,1.9,0,0,1-.265-.326l-2.977-4.537a1.761,1.761,0,0,0-.125-.175c-.05-.061-.09-.092-.123-.092a.054.054,0,0,0-.059.05.564.564,0,0,0-.008.1v2.919q0,.567.041,1.16a2.137,2.137,0,0,0,.323,1.026h-2.227a2.119,2.119,0,0,0,.322-1.026q.042-.59.042-1.157Z" fill="#231f20"/>
        <path id="Path_473" data-name="Path 473" d="M318.739,709.562a5.1,5.1,0,0,1-.14-.752c-.017-.189-.057-.282-.122-.282a.1.1,0,0,0-.067.016c-.011.012-.023.022-.033.033q-.167.234-.325.443a1.78,1.78,0,0,1-.374.366,1.68,1.68,0,0,1-.515.25,2.54,2.54,0,0,1-.733.092,2.308,2.308,0,0,1-1.463-.467,1.65,1.65,0,0,1-.6-1.386,1.482,1.482,0,0,1,.306-.943,3.169,3.169,0,0,1,.763-.693,6.318,6.318,0,0,1,.979-.526q.522-.225.937-.426c.233-.112.426-.206.58-.284a1.2,1.2,0,0,0,.366-.269.836.836,0,0,0,.182-.386,3.231,3.231,0,0,0,.05-.638,1.871,1.871,0,0,0-.281-1.048,1.115,1.115,0,0,0-1.01-.428,1.1,1.1,0,0,0-.826.25,1.82,1.82,0,0,0-.356.551,4.268,4.268,0,0,1-.273.55.582.582,0,0,1-.546.25.66.66,0,0,1-.447-.142.55.55,0,0,1-.165-.442.983.983,0,0,1,.281-.708,2.132,2.132,0,0,1,.711-.476,3.849,3.849,0,0,1,.952-.258,7.019,7.019,0,0,1,1-.075,5.79,5.79,0,0,1,.843.059,2.268,2.268,0,0,1,.694.209,1.183,1.183,0,0,1,.47.418,1.209,1.209,0,0,1,.173.669v3.678q0,.751.041,1.462a2.249,2.249,0,0,0,.423,1.229Zm-2.625-1.069a1.412,1.412,0,0,0,.922.292,1.3,1.3,0,0,0,.648-.158,1.491,1.491,0,0,0,.474-.416,1.762,1.762,0,0,0,.282-.59,2.571,2.571,0,0,0,.092-.682v-1.68l-.9.45c-.31.154-.582.3-.814.423a3.475,3.475,0,0,0-.59.4,1.355,1.355,0,0,0-.357.467,1.454,1.454,0,0,0-.116.606A1.075,1.075,0,0,0,316.114,708.493Z" fill="#231f20"/>
        <path id="Path_474" data-name="Path 474" d="M322.92,704.091a2.748,2.748,0,0,0,.637.594,7.3,7.3,0,0,0,.828.485,5.3,5.3,0,0,1,.827.518,2.86,2.86,0,0,1,.637.678,1.714,1.714,0,0,1,.256.97,2.053,2.053,0,0,1-.256,1.046,2.381,2.381,0,0,1-.68.744,3.056,3.056,0,0,1-.945.451,3.76,3.76,0,0,1-1.052.151,4.579,4.579,0,0,1-.937-.092,5.486,5.486,0,0,1-.9-.276.612.612,0,0,1-.206-.117.327.327,0,0,1-.075-.25,5.754,5.754,0,0,1,.033-.6c.022-.2.039-.408.051-.62.131.211.258.4.38.566a2.009,2.009,0,0,0,.415.423,1.71,1.71,0,0,0,.523.266,2.361,2.361,0,0,0,.705.092,1.714,1.714,0,0,0,1.154-.351,1.338,1.338,0,0,0,.407-1.069,1.431,1.431,0,0,0-.24-.843,2.467,2.467,0,0,0-.6-.6,6.7,6.7,0,0,0-.794-.484,4.819,4.819,0,0,1-.794-.518,2.512,2.512,0,0,1-.6-.7,2,2,0,0,1-.241-1.028,1.488,1.488,0,0,1,.67-1.369,3.481,3.481,0,0,1,1.844-.418,4.85,4.85,0,0,1,.753.059c.248.039.5.087.752.142a.8.8,0,0,0,.124.042.107.107,0,0,1,.091.109c0,.156,0,.341-.009.552s-.014.406-.024.585q-.249-.3-.439-.495a1.7,1.7,0,0,0-.388-.3,1.425,1.425,0,0,0-.414-.151,2.626,2.626,0,0,0-.5-.042,1.567,1.567,0,0,0-.861.243.851.851,0,0,0-.38.777A1.335,1.335,0,0,0,322.92,704.091Z" fill="#231f20"/>
        <path id="Path_475" data-name="Path 475" d="M333.3,707.647c0,.312.012.632.033.961a1.987,1.987,0,0,0,.232.843h-1.486v-4.585a7.737,7.737,0,0,0-.042-.8,2.053,2.053,0,0,0-.2-.72,1.357,1.357,0,0,0-.45-.518,1.379,1.379,0,0,0-.793-.2,1.309,1.309,0,0,0-1.276.737,2.289,2.289,0,0,0-.234.754,6.013,6.013,0,0,0-.058.836v2.694q0,.468.034.963a1.677,1.677,0,0,0,.272.845H327.5a1.715,1.715,0,0,0,.264-.843q.033-.492.033-.96V699.7a8.887,8.887,0,0,0-.049-.968.974.974,0,0,0-.381-.7l1.652-.267v4.721c0,.065,0,.127.007.182s.02.084.048.084.1-.053.192-.159a2.568,2.568,0,0,1,.409-.35,3.082,3.082,0,0,1,.659-.35,2.453,2.453,0,0,1,.925-.159,2.112,2.112,0,0,1,1.492.5,2.186,2.186,0,0,1,.542,1.669Z" fill="#231f20"/>
      </g>
      <g id="Group_593" data-name="Group 593">
        <path id="Path_476" data-name="Path 476" d="M331.709,687.329l14.045,1.832-3.331,11.658Z" fill="#d83768"/>
        <path id="Path_477" data-name="Path 477" d="M346.253,689.217l10.437,13.878-12.046,5.774-1.5-6.107a9.117,9.117,0,0,1,.222-3.941Z" fill="#d83768"/>
        <path id="Path_478" data-name="Path 478" d="M357.078,702.984l-3.886-5.44,6.551-1.11Z" fill="#b01117"/>
        <path id="Path_479" data-name="Path 479" d="M360.243,696.434l2.443,2.609h-3.553Z" fill="#b01117"/>
        <path id="Path_480" data-name="Path 480" d="M346.753,708.48l9.937-4.941-.333,1.166Z" fill="#d83a2b"/>
        <path id="Path_481" data-name="Path 481" d="M342.423,702.041l-4.164,13.989,6.329-5Z" fill="#9d0b0f"/>
        <path id="Path_482" data-name="Path 482" d="M337.149,694.824l-4.052-5.163-1.554.056Z" fill="#b01117"/>
        <path id="Path_483" data-name="Path 483" d="M343.056,701.991c.036.468.089.771.089.771l1.5,6.107,12.046-5.774-.11-.146Z" fill="#c3161c"/>
      </g>
    </g>
  </g>
</svg>
