<svg xmlns="http://www.w3.org/2000/svg" width="79.144" height="39.137" viewBox="0 0 79.144 39.137">
  <g id="Group_710" data-name="Group 710" transform="translate(-560.396 -682.111)">
    <rect id="Rectangle_50" data-name="Rectangle 50" width="79.144" height="39.137" rx="6" transform="translate(560.396 682.111)" fill="#f3fcff"/>
    <g id="layer1">
      <g id="g13">
        <g id="g15">
          <path id="Path_538" data-name="Path 538" d="M589.388,714.529v-1.713a1,1,0,0,0-1.085-1.085,1.126,1.126,0,0,0-.971.485,1,1,0,0,0-.913-.485.923.923,0,0,0-.8.4v-.343h-.6v2.741h.6v-1.513c0-.485.257-.714.657-.714s.6.257.6.714v1.513h.6v-1.513a.632.632,0,0,1,.657-.714c.4,0,.6.257.6.714v1.513Zm8.881-2.741H597.3v-.828h-.6v.828h-.542v.543h.542v1.256c0,.628.257,1,.943,1a1.6,1.6,0,0,0,.742-.2l-.171-.514a.943.943,0,0,1-.514.142c-.286,0-.4-.171-.4-.457v-1.227h.971Zm5.083-.057a.8.8,0,0,0-.714.4v-.343h-.6v2.741h.6v-1.542c0-.456.2-.713.571-.713a1.644,1.644,0,0,1,.371.057l.171-.571a1.85,1.85,0,0,0-.4-.029Zm-7.682.286a1.956,1.956,0,0,0-1.113-.286c-.686,0-1.143.343-1.143.885,0,.457.343.714.943.8l.285.028c.314.057.486.143.486.286,0,.2-.229.342-.628.342a1.575,1.575,0,0,1-.914-.285l-.286.457a2.024,2.024,0,0,0,1.171.342c.8,0,1.256-.371,1.256-.885,0-.485-.371-.742-.942-.828l-.285-.028c-.257-.029-.457-.086-.457-.257,0-.2.2-.314.514-.314a2.052,2.052,0,0,1,.856.228l.257-.485Zm15.934-.286a.8.8,0,0,0-.714.4v-.343h-.6v2.741h.6v-1.542c0-.456.2-.713.571-.713a1.643,1.643,0,0,1,.371.057l.172-.571a1.865,1.865,0,0,0-.4-.029Zm-7.653,1.428a1.371,1.371,0,0,0,1.456,1.427,1.417,1.417,0,0,0,.971-.314l-.285-.485a1.157,1.157,0,0,1-.714.257.811.811,0,0,1-.828-.885.842.842,0,0,1,.828-.885,1.156,1.156,0,0,1,.714.256l.285-.485a1.422,1.422,0,0,0-.971-.314,1.372,1.372,0,0,0-1.456,1.428Zm5.54,0v-1.371h-.6v.343a1.031,1.031,0,0,0-.856-.4,1.429,1.429,0,0,0,0,2.855.96.96,0,0,0,.856-.4v.342h.6v-1.37Zm-2.2,0a.83.83,0,1,1,1.656,0,.83.83,0,1,1-1.656,0Zm-7.167-1.428a1.428,1.428,0,0,0,.028,2.855,1.747,1.747,0,0,0,1.114-.371l-.286-.428a1.362,1.362,0,0,1-.8.285.771.771,0,0,1-.828-.656h2.027v-.229a1.261,1.261,0,0,0-1.256-1.456Zm0,.514a.667.667,0,0,1,.685.657h-1.428a.725.725,0,0,1,.743-.657Zm14.877.914V710.7h-.6v1.428a1.031,1.031,0,0,0-.856-.4,1.429,1.429,0,0,0,0,2.855.96.96,0,0,0,.856-.4v.342h.6v-1.37Zm-2.2,0a.83.83,0,1,1,1.656,0,.83.83,0,1,1-1.656,0Zm-20.045,0v-1.371h-.6v.343a1.032,1.032,0,0,0-.857-.4,1.429,1.429,0,0,0,0,2.855.961.961,0,0,0,.857-.4v.342h.6v-1.37Zm-2.228,0a.83.83,0,1,1,1.657,0,.83.83,0,1,1-1.657,0Z"/>
        </g>
        <g id="Group_600" data-name="Group 600">
          <rect id="rect19" width="8.995" height="16.162" transform="translate(595.47 690.972)" fill="#ff5f00"/>
          <path id="Path_539" data-name="Path 539" d="M596.042,699.053a10.3,10.3,0,0,1,3.912-8.081,10.279,10.279,0,1,0,0,16.162A10.262,10.262,0,0,1,596.042,699.053Z" fill="#eb001b"/>
          <path id="path22" d="M616.6,699.053a10.27,10.27,0,0,1-16.619,8.081,10.3,10.3,0,0,0,0-16.162,10.269,10.269,0,0,1,16.619,8.081Z" fill="#f79e1b"/>
        </g>
      </g>
    </g>
  </g>
</svg>
