<svg xmlns="http://www.w3.org/2000/svg" width="79.144" height="39.137" viewBox="0 0 79.144 39.137">
  <g id="Group_712" data-name="Group 712" transform="translate(-379.061 -682.111)">
    <rect id="Rectangle_48" data-name="Rectangle 48" width="79.144" height="39.137" rx="6" transform="translate(379.061 682.111)" fill="#f3fcff"/>
    <g id="Group_599" data-name="Group 599">
      <g id="Group_595" data-name="Group 595">
        <path id="Path_484" data-name="Path 484" d="M411.616,702.4a12.927,12.927,0,0,1-.309,2.848h0a12.565,12.565,0,0,1-2.024,4.529c-.034.035-.034.069-.069.069-.171.24-.343.446-.514.652h0c-.035.034-.035.069-.069.069a13.557,13.557,0,0,1-1.887,1.818,12.75,12.75,0,0,1-2.333,1.476,13.706,13.706,0,0,1-3.157,1.063,1.97,1.97,0,0,1-.446.069c-.138.034-.275.034-.412.069-.206.034-.412.034-.618.068a8.188,8.188,0,0,1-.926.035,5.7,5.7,0,0,1-.789-.035,9.767,9.767,0,0,1-1.407-.171c-.412-.069-.858-.172-1.27-.275a12.828,12.828,0,0,1-5.97-3.671c-.24-.24-.446-.515-.652-.755a13.147,13.147,0,0,1-2.162-4.118,12.2,12.2,0,0,1-.583-3.74,12.805,12.805,0,0,1,7.274-11.529,12.189,12.189,0,0,0-1.029,1.544l-.1.1a11.26,11.26,0,0,0-4.186,8.75,10.233,10.233,0,0,0,.24,2.3c0,.068.034.1.034.171a1.2,1.2,0,0,1,.069.344c.034.1.069.205.1.343a7.915,7.915,0,0,0,.343.96c.034.069.069.172.1.241.069.171.137.308.206.48.1.206.206.377.309.549h0c.068.137.171.274.24.412a1.221,1.221,0,0,0,.24.343c.034.068.069.1.1.171.069.1.171.241.24.344a1.94,1.94,0,0,0,.24.308c.069.1.138.172.206.275a8.2,8.2,0,0,0,.927.961,3.659,3.659,0,0,0,.411.343,1.906,1.906,0,0,0,.309.24,1.9,1.9,0,0,1,.309.24c.206.137.412.309.652.446.137.1.309.172.446.275.137.068.275.171.446.24a1.684,1.684,0,0,0,.24.1.263.263,0,0,0,.138.068.1.1,0,0,1,.068.035,1.446,1.446,0,0,0,.343.137h0c.035.034.069.034.138.069a1.945,1.945,0,0,0,.411.137.647.647,0,0,0,.24.069h0c.412.137.824.24,1.236.343.171.034.309.068.48.1.137.034.275.034.412.068.1,0,.206.035.343.035h1.064a12.336,12.336,0,0,0,3.191-.447l.926-.308.721-.309h0c.1-.069.24-.1.343-.172l.206-.1c.068-.034.1-.068.171-.1l.515-.308a2.108,2.108,0,0,0,.343-.241,3.118,3.118,0,0,1,.343-.24c.1-.068.172-.137.275-.206.068-.068.137-.1.206-.171s.171-.138.24-.206c.1-.1.206-.172.309-.275l.274-.274a1.921,1.921,0,0,0,.24-.275c.035-.034.069-.068.069-.1.034-.034.069-.1.137-.137a2.427,2.427,0,0,0,.275-.343,1.461,1.461,0,0,0,.171-.24h0a1.927,1.927,0,0,0,.206-.275.178.178,0,0,0,.069-.137c.1-.137.171-.274.274-.412s.172-.308.275-.446a.716.716,0,0,1,.137-.206h0v-.034c.034-.1.1-.171.137-.274a1.233,1.233,0,0,0,.138-.309c.068-.137.1-.24.171-.378a2.307,2.307,0,0,1,.1-.274c.034-.069.069-.172.1-.24a.21.21,0,0,0,.034-.138c0-.034.035-.1.035-.137a3.369,3.369,0,0,0,.171-.549c.034-.068.034-.171.069-.24.034-.137.068-.309.1-.446a1.737,1.737,0,0,0,.068-.412,2.616,2.616,0,0,0,.069-.549c0-.137.034-.24.034-.377a1.144,1.144,0,0,1,.035-.343V701.2a8.791,8.791,0,0,0-.035-.96v-.1h0a1.927,1.927,0,0,1,.275.205c.068.069.171.138.24.206h0a4.67,4.67,0,0,1,.446-.686l.034-.034a.125.125,0,0,0,.035.1c.068.377.137.789.171,1.2v.034C411.582,701.577,411.616,701.988,411.616,702.4Z" fill="#ec1c24"/>
        <path id="Path_485" data-name="Path 485" d="M410.381,701.234v.583a1.176,1.176,0,0,1-.034.343c0,.137-.035.24-.035.377-.034.172-.034.344-.068.549-.035.138-.035.275-.069.412s-.069.309-.1.446c-.034.069-.034.172-.068.24a2.576,2.576,0,0,1-.172.549c0,.035-.034.1-.034.138s-.035.1-.035.137c-.034.069-.068.172-.1.24a2.222,2.222,0,0,1-.1.275,1.8,1.8,0,0,1-.171.377c-.034.1-.1.206-.137.309s-.1.171-.138.274v.035h0a.716.716,0,0,1-.137.206,3.119,3.119,0,0,1-.274.446,2.886,2.886,0,0,1-.275.411.182.182,0,0,0-.069.138c-.068.1-.137.171-.2.274h0a1.467,1.467,0,0,0-.172.24c-.1.1-.172.241-.274.343-.035.035-.069.1-.138.138-.034.034-.068.068-.068.1-.069.1-.172.171-.241.274l-.274.275c-.1.1-.206.171-.309.274-.068.069-.171.137-.24.206s-.137.1-.206.172c-.1.068-.171.137-.274.206a3.045,3.045,0,0,1-.344.24c-.1.068-.2.137-.343.24l-.514.309c-.069.034-.1.068-.172.1l-.206.1a1.614,1.614,0,0,1-.343.171h0l-.72.309c-.309.1-.584.206-.927.309a10.7,10.7,0,0,1-3.191.446H398.2c-.1,0-.206-.034-.343-.034a1.741,1.741,0,0,1-.412-.069c-.171-.034-.309-.069-.48-.1a8.382,8.382,0,0,1-1.236-.343h0a.636.636,0,0,0-.24-.069c-.137-.034-.274-.1-.411-.137a.258.258,0,0,1-.138-.069h0c-.1-.034-.24-.1-.343-.137-.034,0-.034,0-.068-.034-.069-.035-.1-.035-.138-.069-.068-.034-.171-.068-.24-.1-.137-.068-.274-.137-.446-.24a3.249,3.249,0,0,1-.446-.274,7.432,7.432,0,0,1-.652-.447,1.846,1.846,0,0,1-.309-.24c-.1-.068-.206-.171-.309-.24-.137-.1-.274-.24-.411-.343l-.172-.172-.206-.205-.1-.1c-.068-.069-.137-.172-.206-.241a1.979,1.979,0,0,1-.24-.274c-.068-.1-.137-.172-.206-.275s-.171-.2-.24-.308a2.1,2.1,0,0,1-.24-.344c-.034-.068-.069-.1-.1-.171a2.1,2.1,0,0,0-.24-.343c-.069-.138-.172-.275-.24-.412h0c-.1-.172-.206-.377-.309-.549-.069-.172-.137-.309-.206-.48-.034-.069-.069-.172-.1-.241-.137-.308-.24-.652-.343-.96-.034-.1-.069-.206-.1-.343a1.237,1.237,0,0,1-.069-.344c0-.068-.034-.1-.034-.171a12.767,12.767,0,0,1-.24-2.3,11.26,11.26,0,0,1,4.186-8.75l.1-.1a12.886,12.886,0,0,0-1.681,6.348,13.952,13.952,0,0,0,.171,2.093,11.654,11.654,0,0,0,.481,1.956c.1.274.205.549.308.789a14.557,14.557,0,0,0,1.064,2.059c.034.034.034.069.069.1a.119.119,0,0,0,.034.068h0v.035h0a.178.178,0,0,1,.069.137h0l.205.309h0c.035.068.069.1.1.171h0c.035.069.1.138.138.206h0c.034.035.034.069.068.1l.035.035h0a.75.75,0,0,0,.137.171c.034.034.068.069.068.1h0a2.1,2.1,0,0,0,.275.275l.206.205h0a4.757,4.757,0,0,0,.926.721h0a6.315,6.315,0,0,0,2.093.892h0c.1.034.172.034.275.069.068,0,.137.034.206.034a5.9,5.9,0,0,0,1.1.1,6.383,6.383,0,0,0,1.647-.206,6.863,6.863,0,0,0,3.191-11.529,13.013,13.013,0,0,1,5.49,1.681,1.462,1.462,0,0,0,.24.138,9.365,9.365,0,0,1,.961.652l.034.034h0v.1A1.945,1.945,0,0,1,410.381,701.234Z" fill="#f6921e"/>
        <path id="Path_486" data-name="Path 486" d="M392.641,702.812v.515A11.1,11.1,0,0,1,397.96,688.2l2.23,4.083A11.063,11.063,0,0,0,392.641,702.812Z" fill="#f6921e"/>
        <path id="Path_487" data-name="Path 487" d="M407.258,694.337a11.412,11.412,0,0,0-2.676-.309,12.132,12.132,0,0,0-6.142,1.681h0a13.085,13.085,0,0,0-1.578,1.133,12.933,12.933,0,0,0-2.333,2.607,10.025,10.025,0,0,0-.858,1.579.118.118,0,0,1-.035.068c-.034.069-.068.172-.1.241a.124.124,0,0,1,.035-.1h0v-.069c.034-.137.068-.275.1-.446a6.721,6.721,0,0,1,.24-.789,11.513,11.513,0,0,1,1.887-3.569h0a12.109,12.109,0,0,1,5.353-3.98l-.206-.377h0l-1.064-1.991-.137-.24a.7.7,0,0,1,.275-.137,12.093,12.093,0,0,1,5.833-1.51c.411,0,.823.034,1.2.069l.137,3.259v.687Z" fill="#ec1c24"/>
        <path id="Path_488" data-name="Path 488" d="M412.714,693.616a13.376,13.376,0,0,0-1.99-.961h0a13.622,13.622,0,0,0-2.882-.72l.034.48.069,2.059.034.686a12.559,12.559,0,0,0-3.019-.377,12.189,12.189,0,0,0-4.907,1.029h0a12.572,12.572,0,0,0-2.951,1.853h0c-.309.275-.618.549-.892.824a13.852,13.852,0,0,1,3.328-1.236h0a13.424,13.424,0,0,1,3.123-.377h.068a13.86,13.86,0,0,1,7.515,2.2c.24.171.48.309.72.515l.275-.446,1.2-1.819.171-.275.378-.583.48-.755.24-.377.1-.172.1-.171.24-.378A15.209,15.209,0,0,0,412.714,693.616Zm-3.637-1.372h.034c.035,0,.035,0,.069.034C409.146,692.278,409.111,692.244,409.077,692.244Z" fill="#f6921e"/>
      </g>
      <g id="Group_596" data-name="Group 596">
        <path id="Path_489" data-name="Path 489" d="M397.96,700.273s-.789.171-.721-.206c0-.172.1-.206.172-.172,0-.068-.172-.274.206-.377.1-.172.206-.309.274-.412s.1-.274.412-.171a1.4,1.4,0,0,1,.686.48c.172,0,.378.069.309.069l-.1.1s.1.068-.206.068a.11.11,0,0,0,.1.1c.069.069,0,.069,0,.1,0,0,.069.172-.1.1s-.171-.1-.206-.1c-.068,0-.171,0-.171.069s.171.171,0,.171c-.069.069.068.1,0,.1a2.865,2.865,0,0,1-.584.378c-.171,0-.205-.069-.205-.1s.1-.1.205-.1c-.068-.069-.034-.1-.068-.1" fill="#ec1c24"/>
        <path id="Path_490" data-name="Path 490" d="M397.891,701.1c-.068,0-.309-.171-.171-.206.1-.1.617-.411.72-.48a.115.115,0,1,1,.1.206,3.678,3.678,0,0,1-.652.48" fill="#ec1c24"/>
        <path id="Path_491" data-name="Path 491" d="M398.68,700.719c0-.1.1-.412.1-.48s.275-.1.206.2c-.1.275-.309.412-.309.275" fill="#ec1c24"/>
        <path id="Path_492" data-name="Path 492" d="M399.058,700.1a12.191,12.191,0,0,1,1.578,0,1.98,1.98,0,0,1,.481,1.51c-.1.686-.309.824-1.27.961a2.978,2.978,0,0,0-.172-.961c-.1-.172-.411-.515-.514-.515,0,.172-.069.618-.069.618s-.48.069-.515-.069v-.72a6.3,6.3,0,0,0,.481-.481c.068.069.1.275.583.206,0,.069-.583.138-.583-.549" fill="#ec1c24"/>
        <path id="Path_493" data-name="Path 493" d="M398.474,700.788s-.48.377-.583.48c-.068.1-.1.515.481.515a4.351,4.351,0,0,0,.1-.995" fill="#ec1c24"/>
        <path id="Path_494" data-name="Path 494" d="M397.376,701.371c-.171,0-.274-.069-.274-.172a.306.306,0,0,1,.377-.206.538.538,0,0,1,.378.584,1.087,1.087,0,0,0,.72.309c.378,0,.584,0,.584.1v.687a3.363,3.363,0,0,1-1.476-.721.491.491,0,0,1-.171-.377c0-.172-.1-.206-.138-.206" fill="#ec1c24"/>
        <path id="Path_495" data-name="Path 495" d="M397.068,701.405c-.172,0-.687.412-.309.583l.206-.2s-.1.274.1.308c.206.069.1-.1.206-.1.068.1.068.172.171.172s.1-.309,0-.48a.372.372,0,0,0-.377-.275" fill="#ec1c24"/>
        <path id="Path_496" data-name="Path 496" d="M399.264,701.474v1.372a1.813,1.813,0,0,0,.48-.274c0-.206-.1-1.1-.48-1.1" fill="#ec1c24"/>
        <path id="Path_497" data-name="Path 497" d="M398.166,702.366a4.266,4.266,0,0,0,.823.48c-.068.069-.274.378-.377.309a1.967,1.967,0,0,1-.446-.789" fill="#ec1c24"/>
        <path id="Path_498" data-name="Path 498" d="M396.313,703.155h-.686l-.034-.274h.721Z" fill="#ec1c24"/>
        <path id="Path_499" data-name="Path 499" d="M400.876,703.086h2.539v-.343H400.43Z" fill="#ec1c24"/>
        <path id="Path_500" data-name="Path 500" d="M399.847,702.743c.069-.068.412.206.309.275a11.6,11.6,0,0,1-1.1.412.183.183,0,0,1,.068-.309c.035-.069.549-.24.721-.378" fill="#ec1c24"/>
        <path id="Path_501" data-name="Path 501" d="M398.783,703.361c-.1-.069-.686.515-.411.583a6.836,6.836,0,0,1,1.063.275c.172-.069.275-.206.275-.275.1,0,.274.172.411.1a3.2,3.2,0,0,0,.893-.686,2.08,2.08,0,0,0-.618-.309c-.137-.068-1.1.515-1.613.309" fill="#ec1c24"/>
        <path id="Path_502" data-name="Path 502" d="M398.474,704.082c.069,0,.824.274,1,.274.2-.069.2-.206.308-.206s.172.1.309,0a4.826,4.826,0,0,0,.583-.48c0,.1,0,.412-.686.72a14.839,14.839,0,0,0-2.367.995,3.421,3.421,0,0,0,.411-.1.587.587,0,0,1,.206.618c-.068.378-.309.961-.309,1.1v.995c0,.069.172.515-.068.481s-.309-.069-.412,0c-.1,0-.274.171-.377.1-.172,0-.378-.1-.378-.171s.172-.069.309-.1c.172-.069.206-.206.48-.309,0-.171-.1-1.475-.1-1.75s-.1-.823.069-1.063c.137-.241.755-1.133,1.029-1.1" fill="#ec1c24"/>
        <path id="Path_503" data-name="Path 503" d="M399.47,704.836c0,.1.48,1.27.686,1.27a14,14,0,0,1,2.505-.275c.1.172.308.412.308.584,0,0,.069.377,0,.412a.412.412,0,0,0,.275-.172,2.524,2.524,0,0,0,0-.721c0-.1.274-.583-.069-.514a11.046,11.046,0,0,1-1.509-.069,2.563,2.563,0,0,0-1.1-.1,1.253,1.253,0,0,0-.378.412c-.069,0-.1-.069,0-.275a3.427,3.427,0,0,0,.275-1.1c-.172.069-.995.549-.995.549" fill="#ec1c24"/>
        <path id="Path_504" data-name="Path 504" d="M398.372,702.984a.391.391,0,0,0,.1.205l-1.509-.1s-.172-.1-.1-.171Z" fill="#ec1c24"/>
        <path id="Path_505" data-name="Path 505" d="M396.69,702.881h1.51s-.1-.172-.172-.275h-1.406s-.172,0-.172.309c.034.069.137.171.24-.034" fill="#ec1c24"/>
        <path id="Path_506" data-name="Path 506" d="M395.215,703.155h.309s.1-.069,0-.171-.309-.206-.172-.412c-.172,0-.377-.069-.309.412h-.171a.4.4,0,0,0-.412-.275,5.231,5.231,0,0,0-1.27.377,9.449,9.449,0,0,0,1.27.275.509.509,0,0,0,.412-.275h.1s.068.206.1.275v.309a.15.15,0,0,0-.069.206c0,.171.1.171.171.171s.069-.068.206-.068c.069-.069,0-.275-.1-.309v-.206s.1-.1.1-.172c-.068-.1-.171-.034-.171-.137" fill="#ec1c24"/>
        <path id="Path_507" data-name="Path 507" d="M397.068,704.631h0a.612.612,0,0,0,.171-.206h0v-.892c0-.206-.377-.378-.412-.378h0a.372.372,0,0,1-.2.1.314.314,0,0,1-.275-.1h0c-.309,0-.48.378-.48.412h0a3.282,3.282,0,0,0,0,.823c0,.1.1.206.171.275-.068.206-.377,1.407.069,1.578v.206h1.064v-.206c.24-.24,0-1.3-.1-1.612m-1.236-1.1a.455.455,0,0,1,.378-.309.378.378,0,0,0,.309.1c.1,0,.206-.1.274-.1.1.068.309.171.309.309v.892c0,.068-.069.1-.1.171h-.206v-.412h-.686v.378h-.172a.247.247,0,0,1-.1-.206v-.823m.755,2.47h-.206a.1.1,0,1,1,0-.206h.206a.11.11,0,0,1,.1.1.154.154,0,0,1-.1.1m.412.1-.515-.583-.48.583h0c-.309-.1-.1-1.064,0-1.475H397c.1.411.275,1.3,0,1.475" fill="#ec1c24"/>
        <path id="Path_508" data-name="Path 508" d="M396.827,705.042a.2.2,0,0,0-.068-.274h-.618c-.206,0-.171.274-.171.274l.377.309a.691.691,0,0,0,.48-.309" fill="#ec1c24"/>
        <path id="Path_509" data-name="Path 509" d="M396.587,705.42l.378.411s-.069-.514-.069-.686c-.069.069-.309.275-.309.275" fill="#ec1c24"/>
        <path id="Path_510" data-name="Path 510" d="M396.038,705.145c0,.172-.068.686-.068.686l.377-.411c.034,0-.171-.206-.309-.275" fill="#ec1c24"/>
        <path id="Path_511" data-name="Path 511" d="M396.793,704.047h.069v-.068a.068.068,0,0,0-.069-.069h-.583a.068.068,0,0,0-.069.069v.068h.652Z" fill="#ec1c24"/>
        <path id="Path_512" data-name="Path 512" d="M395.935,706.449h-.068v.069a.067.067,0,0,0,.068.068H397a.067.067,0,0,0,.069-.068v-.069h-1.133Z" fill="#ec1c24"/>
      </g>
      <g id="Group_597" data-name="Group 597">
        <path id="Path_513" data-name="Path 513" d="M418.788,713.552v.686l.583-.206.171.172v.206a.932.932,0,0,1-.2.583.554.554,0,0,1-.515.206.692.692,0,0,1-.618-.309,1.875,1.875,0,0,1-.377-.618l.171-.1c.206.584.481.824.824.824a.592.592,0,0,0,.549-.549.189.189,0,0,0-.069-.172l-.514.206-.172-.206v-.72h-.892v-.172h1.99v.172Z" fill="#231f20"/>
        <path id="Path_514" data-name="Path 514" d="M420.126,713.552v1.578h-.206v-1.578h-.275v-.172h.686v.172Z" fill="#231f20"/>
        <path id="Path_515" data-name="Path 515" d="M421.43,713.552v.1a.911.911,0,0,1,.48.171c.172.1.274.206.274.378a.473.473,0,0,1-.171.309.559.559,0,0,1-.309.1h-.069v-.206h.1c.172,0,.206-.069.206-.206q0-.258-.514-.309v1.27h-.206c-.1-.172-.206-.309-.309-.481a.629.629,0,0,0-.515-.206l-.068-.274a4.627,4.627,0,0,1,.892-.515v-.1h-.961v-.171h1.99v.171A6.664,6.664,0,0,0,421.43,713.552Zm-.206.309a1.942,1.942,0,0,0-.275.171l-.274.275a1.02,1.02,0,0,1,.274.274,2.833,2.833,0,0,1,.275.309Z" fill="#231f20"/>
        <path id="Path_516" data-name="Path 516" d="M424.964,713.071a1.651,1.651,0,0,0-.824-.308.839.839,0,0,0-.514.171.5.5,0,0,0-.206.481h.206v.171h-.206v1.476h-.206v-1.51h-.206v-.172h.206a.754.754,0,0,1,.274-.617.8.8,0,0,1,.618-.206,3.321,3.321,0,0,1,.515.1,4.818,4.818,0,0,0,.48.274Z" fill="#231f20"/>
        <path id="Path_517" data-name="Path 517" d="M425.1,713.62V715.2h-.206a1.755,1.755,0,0,0-.515-.481,1.194,1.194,0,0,0-.686-.205l-.068-.275a1.67,1.67,0,0,1,.617-.309c.1-.068.309-.1.687-.274v-.1h-1.407v-.172h1.853v.172H425.1Zm-.206.309c-.206.069-.515.206-.961.412a5.01,5.01,0,0,1,.961.515Z" fill="#231f20"/>
        <path id="Path_518" data-name="Path 518" d="M425.273,713.38h1.955v.172h-1.955Zm1.1,1.75a.89.89,0,0,1-.618-.309,1.837,1.837,0,0,1-.377-.617l.1-.1a1.913,1.913,0,0,0,.309.583.651.651,0,0,0,.515.309.592.592,0,0,0,.549-.549.815.815,0,0,1-.412.172.658.658,0,0,1-.309-.1.478.478,0,0,1-.171-.309,1.1,1.1,0,0,1,.1-.309.416.416,0,0,1,.309-.1c.1,0,.171,0,.206.069s.1.1.1.206a.391.391,0,0,1-.1.2l-.172-.1c.069-.068.069-.068.069-.1a.154.154,0,0,0-.1-.1.234.234,0,0,0-.241.24.3.3,0,0,0,.1.206.247.247,0,0,0,.206.1.49.49,0,0,0,.412-.206l.206.206a.648.648,0,0,1-.206.514,3.634,3.634,0,0,1-.48.1" fill="#231f20"/>
        <path id="Path_519" data-name="Path 519" d="M427.572,713.552v1.578H427.4v-1.578h-.24v-.172h.686v.172Z" fill="#231f20"/>
        <path id="Path_520" data-name="Path 520" d="M428.635,715.233a1.421,1.421,0,0,1-.48-.1.956.956,0,0,1-.275-.686.907.907,0,0,1,.172-.48,2.584,2.584,0,0,1,.309-.412h-.618v-.172h.995v.172a.729.729,0,0,0-.412.377.718.718,0,0,0-.2.515q0,.618.514.618a.189.189,0,0,0,.172-.069v.206a.377.377,0,0,1-.172.034" fill="#231f20"/>
        <path id="Path_521" data-name="Path 521" d="M429.939,713.655v1.51h-.206v-1c0-.068-.068-.1-.1-.171a.517.517,0,0,0-.48-.309.391.391,0,0,0-.206.1l-.1.1a.338.338,0,0,1,.206-.069.412.412,0,0,1,.275.069.246.246,0,0,1,.1.206.473.473,0,0,1-.171.309c-.1.1-.206.206-.309.206l-.1-.172c.1-.069.172-.1.275-.172.1-.1.171-.171.171-.274,0-.069-.068-.1-.171-.1s-.172-.069-.206-.069h-.069l-.1-.206.206-.205a.455.455,0,0,1,.275-.1.685.685,0,0,1,.583.377v-.377h.377v.171h-.24Z" fill="#231f20"/>
        <path id="Path_522" data-name="Path 522" d="M431.655,713.552v1.578h-.206a1.066,1.066,0,0,0-.515-.412,1.194,1.194,0,0,0-.686-.205l-.069-.275a6.432,6.432,0,0,1,1.27-.583v-.1h-1.373v-.172h1.785v.172Zm-.206.309a7.07,7.07,0,0,0-.892.411,2.631,2.631,0,0,1,.892.515Zm-.515,1.338a.685.685,0,0,0-.309-.206l.1-.172a1.631,1.631,0,0,1,.309.206Z" fill="#231f20"/>
        <path id="Path_523" data-name="Path 523" d="M434.571,713.071a1.645,1.645,0,0,0-.823-.308.842.842,0,0,0-.515.171.5.5,0,0,0-.206.481h.206v.171h-.206v1.476h-.206v-1.51h-.205v-.172h.205a.752.752,0,0,1,.275-.617.8.8,0,0,1,.618-.206,3.334,3.334,0,0,1,.514.1,4.856,4.856,0,0,0,.481.274Z" fill="#231f20"/>
        <path id="Path_524" data-name="Path 524" d="M434.194,713.518v.686l.583-.206.172.171v.206a.936.936,0,0,1-.206.584.557.557,0,0,1-.515.206.692.692,0,0,1-.617-.309,1.871,1.871,0,0,1-.378-.618l.172-.1c.206.583.48.824.823.824a.59.59,0,0,0,.549-.549.191.191,0,0,0-.068-.172l-.515.206-.206-.172v-.72h-.961v-.172h1.99v.172l-.823-.034Z" fill="#231f20"/>
        <path id="Path_525" data-name="Path 525" d="M437.042,713.071a1.651,1.651,0,0,0-.824-.308.839.839,0,0,0-.514.171.575.575,0,0,0-.206.481h.206v.171H435.5v1.476h-.206v-1.51h-.206v-.172h.206a.754.754,0,0,1,.274-.617.8.8,0,0,1,.618-.206,3.322,3.322,0,0,1,.515.1,4.821,4.821,0,0,0,.48.274Z" fill="#231f20"/>
        <path id="Path_526" data-name="Path 526" d="M436.87,713.449a.434.434,0,0,0,.481.309h.1l.171.206a2.082,2.082,0,0,0-.171.514,1.293,1.293,0,0,0,.1.515l-.172.069a.913.913,0,0,1-.172-.481.508.508,0,0,1,.069-.309c0-.068.069-.171.1-.308a.568.568,0,0,1-.412-.172.61.61,0,0,1-.274-.377.648.648,0,0,0-.309.514.162.162,0,0,0,.171.172.189.189,0,0,0,.172-.069c.069-.068.1-.068.1-.1h.172c.068.069.068.172.068.309,0,.412-.206.583-.617.583a.466.466,0,0,1-.275-.068c-.069,0-.1-.069-.206-.1a4.872,4.872,0,0,1-.274-.481l.1-.1a2.894,2.894,0,0,0,.308.514h0l.172.069a.191.191,0,0,0,.172.068,1.1,1.1,0,0,0,.308-.1.286.286,0,0,0,.1-.275.191.191,0,0,0-.068-.172.475.475,0,0,1-.309.172.664.664,0,0,1-.275-.1.392.392,0,0,1-.1-.274.744.744,0,0,1,.206-.481h-.789v-.171h2.162v.171H436.9v-.034Z" fill="#231f20"/>
        <path id="Path_527" data-name="Path 527" d="M437.968,713.552v1.372h.1a1.135,1.135,0,0,0,.515-.171.5.5,0,0,0,.309-.412.252.252,0,0,0-.275-.274,1.435,1.435,0,0,0-.274.1l-.1-.171a.575.575,0,0,1,.412-.1.475.475,0,0,1,.308.172.546.546,0,0,1,.1.308.707.707,0,0,1-.274.481.979.979,0,0,1-.481.206,1.437,1.437,0,0,1-.583.068v-1.578h-.171v-.172h1.2v-.034a.35.35,0,0,0-.171-.275.557.557,0,0,0-.309-.1,1.1,1.1,0,0,0-.583.205l-.069-.171a1.193,1.193,0,0,1,.686-.206.913.913,0,0,1,.481.172.674.674,0,0,1,.206.411h.206v.172Z" fill="#231f20"/>
        <path id="Path_528" data-name="Path 528" d="M439.718,713.552v1.578h-.206v-1.578h-.275v-.172h.721v.172Z" fill="#231f20"/>
        <path id="Path_529" data-name="Path 529" d="M441.743,713.518v1.544h-.206v-.344c0-.377-.1-.514-.275-.514-.068,0-.1.068-.171.1-.069.068-.069.1-.069.206h-.206c0-.069-.068-.172-.068-.206a.244.244,0,0,0-.206-.1.293.293,0,0,0-.275.309c0,.205.1.274.378.274h.068l-.068.206h-.069a.549.549,0,0,1,0-1.1c.172,0,.275.1.377.274a.538.538,0,0,1,.378-.274c.1,0,.206.1.274.274v-.686h-1.681v-.171h2.059v.171h-.275C441.743,713.552,441.743,713.518,441.743,713.518Z" fill="#231f20"/>
        <path id="Path_530" data-name="Path 530" d="M442.978,714.444a.508.508,0,0,0,.069.309.273.273,0,0,0,.274.206.189.189,0,0,0,.172-.069l.068.172a.291.291,0,0,1-.206.068c-.308,0-.514-.274-.514-.789a1.411,1.411,0,0,1,.583-.961h.309v.172a.969.969,0,0,0-.481.309.636.636,0,0,0-.274.583" fill="#231f20"/>
        <path id="Path_531" data-name="Path 531" d="M445.38,713.518v1.544h-.206v-.344c0-.377-.1-.514-.275-.514-.068,0-.1.068-.171.1-.069.068-.069.1-.069.206h-.206c0-.069-.068-.172-.068-.206a.244.244,0,0,0-.206-.1.293.293,0,0,0-.275.309c0,.205.1.274.378.274h.068l-.068.206h-.069a.549.549,0,0,1,0-1.1c.172,0,.275.1.378.274a.537.537,0,0,1,.377-.274c.1,0,.206.1.275.274v-.686h-1.682v-.171h2.059v.171h-.24Z" fill="#231f20"/>
        <path id="Path_532" data-name="Path 532" d="M447.13,713.62V715.2h-.206v-.137a.7.7,0,0,0-.275-.481.876.876,0,0,0-.48-.274c-.069,0-.172,0-.206.068-.068.069-.1.1-.1.172s0,.171.069.171c.068.069.1.069.206.069a.187.187,0,0,0,.171-.069l.069.206a.37.37,0,0,1-.275.069.473.473,0,0,1-.308-.172.548.548,0,0,1-.1-.308.442.442,0,0,1,.1-.309.473.473,0,0,1,.308-.172.922.922,0,0,1,.79.515v-.995h-1.407v-.172h1.784v.172h-.1C447.13,713.552,447.13,713.62,447.13,713.62Z" fill="#231f20"/>
        <path id="Path_533" data-name="Path 533" d="M448.056,715.233a1.421,1.421,0,0,1-.48-.1.956.956,0,0,1-.275-.686.907.907,0,0,1,.172-.48,2.524,2.524,0,0,1,.309-.412h-.618v-.172h.995v.172a.729.729,0,0,0-.412.377.718.718,0,0,0-.205.515q0,.618.514.618a.189.189,0,0,0,.172-.069v.206a.313.313,0,0,1-.172.034" fill="#231f20"/>
        <path id="Path_534" data-name="Path 534" d="M448.262,713.552v.686a2.511,2.511,0,0,1,.789-.412l.206.275a1.731,1.731,0,0,0-.171.583,2.332,2.332,0,0,0,.1.412l-.172.069a1.38,1.38,0,0,1-.1-.412,1.892,1.892,0,0,1,.069-.618,4.989,4.989,0,0,0-.79.515l-.171-.172v-.892h-.172v-.171h1.51v.171C449.429,713.552,448.262,713.552,448.262,713.552Z" fill="#231f20"/>
        <path id="Path_535" data-name="Path 535" d="M450.938,713.62V715.2h-.2v-.137a.7.7,0,0,0-.275-.481.876.876,0,0,0-.48-.274c-.069,0-.172,0-.206.068-.069.069-.1.1-.1.172s0,.171.069.171c.068.069.1.069.2.069a.189.189,0,0,0,.172-.069l.069.206a.37.37,0,0,1-.275.069.475.475,0,0,1-.309-.172.376.376,0,0,1-.1-.308.447.447,0,0,1,.1-.309.475.475,0,0,1,.309-.172.921.921,0,0,1,.789.515v-.995h-1.407v-.172h1.785v.172h-.1C450.938,713.552,450.938,713.62,450.938,713.62Z" fill="#231f20"/>
      </g>
      <g id="Group_598" data-name="Group 598">
        <path id="Path_536" data-name="Path 536" d="M428.978,696.842H418.067a.38.38,0,0,0-.377.377v.824a.381.381,0,0,0,.377.377H426.2v4.529a8.965,8.965,0,0,0-.789-.961,4.231,4.231,0,0,0-3.054-1.475,2.675,2.675,0,0,0-2.162,1.2,3.517,3.517,0,0,0-.72,2.093,4.245,4.245,0,0,0,.686,2.471,3.133,3.133,0,0,0,2.676,1.3,2.162,2.162,0,0,0,2.3-1.99,1.557,1.557,0,0,0-.96-1.509l-.584-.309v.926a1.083,1.083,0,0,1-.995.618,1.566,1.566,0,0,1-1.063-.412.821.821,0,0,1-.206-.721,1.28,1.28,0,0,1,.377-.892,1.159,1.159,0,0,1,.961-.48,3.255,3.255,0,0,1,2.745,1.578,4.929,4.929,0,0,1,.892,2.745V709.4l1.613.995a.187.187,0,0,0,.171.069.382.382,0,0,0,.378-.378h0V698.42h.617a.381.381,0,0,0,.378-.377v-.824C429.322,697.013,429.15,696.842,428.978,696.842Z" fill="#ec1c24"/>
        <path id="Path_537" data-name="Path 537" d="M450.8,696.842H437.008a.381.381,0,0,0-.378.377h0v1.51c-1.3-1.407-2.505-2.093-3.637-2.093a4.457,4.457,0,0,0-2.642.789,2.606,2.606,0,0,0-1.1,2.059c0,2.4,2.745,2.4,3.363,2.058a.883.883,0,0,1,.48-.171.717.717,0,0,1,.72.789c0,.583-.789,1.064-1.749,1.064a1.242,1.242,0,0,1-1.1-.481l-.412-.617-.309.72a1.63,1.63,0,0,0-.172.618,1.906,1.906,0,0,0,.79,1.51,2.729,2.729,0,0,0,1.75.617,3.008,3.008,0,0,0,2.47-1.1,3.2,3.2,0,0,0,.686-2.093,2.456,2.456,0,0,0-.514-1.407,1.908,1.908,0,0,0-1.579-.96,2.736,2.736,0,0,0-.789.171c-.1-.068-.274,0-.309,0A.524.524,0,0,1,432.2,700a.715.715,0,0,1-.206-.514,1.377,1.377,0,0,1,1.51-1.2h.068a2.656,2.656,0,0,1,1.887.96,6.457,6.457,0,0,1,1.167,1.476v8.612l1.613.961a.187.187,0,0,0,.171.069.382.382,0,0,0,.378-.378h0v-11.6h2.47v7.445l1.956.79h.1c.172,0,.309-.172.377-.309v-.069a5.942,5.942,0,0,1,2.951-4.666v.411a13.475,13.475,0,0,0,.069,1.579,1.42,1.42,0,0,0,.069.583h0a11.776,11.776,0,0,0,.411,3.157c.515,1.853,1.476,2.265,2.162,2.3h.069a1.174,1.174,0,0,0,.892-.309,1.065,1.065,0,0,0,.274-.686,1.49,1.49,0,0,0-.171-.789l-.172-.275-.309.069c-.377.1-.48.1-.48.068h-.069c-.1,0-.1,0-.171-.068a1.5,1.5,0,0,1-.481-.824,7.191,7.191,0,0,1-.171-1.372c0-2.4.515-4.255,1.269-4.667h.069a.393.393,0,0,0,.206-.309.187.187,0,0,0-.069-.171V700.2a3.5,3.5,0,0,0-2.264-1.578h-.206a7.544,7.544,0,0,0-3.191,1.853,11.146,11.146,0,0,1-.961.823v-2.985h7.446a.381.381,0,0,0,.377-.377v-.824C451.144,697.013,451.007,696.842,450.8,696.842Z" fill="#ec1c24"/>
      </g>
    </g>
  </g>
</svg>
