<svg xmlns="http://www.w3.org/2000/svg" width="79.144" height="39.137" viewBox="0 0 79.144 39.137">
  <g id="Group_711" data-name="Group 711" transform="translate(-469.729 -682.111)">
    <rect id="Rectangle_49" data-name="Rectangle 49" width="79.144" height="39.137" rx="6" transform="translate(469.729 682.111)" fill="#f3fcff"/>
    <g id="g4158">
      <path id="polygon9" d="M505.135,711.5h-5.061l3.166-19.574H508.3Z" fill="#00579f"/>
      <path id="path11" d="M523.483,692.4a12.477,12.477,0,0,0-4.54-.834c-5,0-8.518,2.666-8.539,6.476-.042,2.812,2.52,4.373,4.435,5.311,1.959.957,2.624,1.583,2.624,2.436-.02,1.312-1.582,1.916-3.039,1.916a10.067,10.067,0,0,1-4.749-1.041l-.667-.313-.708,4.394a15.4,15.4,0,0,0,5.645,1.042c5.311,0,8.768-2.624,8.809-6.685.02-2.228-1.332-3.935-4.248-5.331-1.771-.895-2.855-1.5-2.855-2.416.021-.833.917-1.686,2.915-1.686a8.6,8.6,0,0,1,3.771.75l.457.207.689-4.226Z" fill="#00579f"/>
      <path id="path13" d="M530.21,704.564c.416-1.125,2.02-5.477,2.02-5.477-.021.042.416-1.145.666-1.874l.354,1.687s.958,4.685,1.166,5.664Zm6.247-12.64h-3.915a2.5,2.5,0,0,0-2.645,1.624l-7.518,17.95h5.311l1.062-2.936h6.5c.145.687.6,2.936.6,2.936h4.686l-4.083-19.574Z" fill="#00579f"/>
      <path id="path15" d="M495.846,691.924l-4.956,13.348-.542-2.707a14.978,14.978,0,0,0-7-8.205l4.54,17.118h5.352l7.955-19.554Z" fill="#00579f"/>
      <path id="path17" d="M486.287,691.924h-8.143l-.083.4c6.352,1.624,10.559,5.539,12.287,10.246l-1.77-9a2.094,2.094,0,0,0-2.291-1.645Z" fill="#faa61a"/>
    </g>
  </g>
</svg>
